<?xml version="1.0" encoding="utf-8"?><svg xmlns="http://www.w3.org/2000/svg" xmlns:xlink="http://www.w3.org/1999/xlink"><symbol fill="none" viewBox="0 0 19 20" id="account" xmlns="http://www.w3.org/2000/svg"><path d="M13.185 12.69a4.184 4.184 0 011.95-.48h.003c.072 0 .106-.083.053-.13a8.938 8.938 0 00-2.486-1.543l-.028-.011c1.488-1.057 2.456-2.775 2.456-4.713C15.133 2.602 12.478 0 9.201 0c-3.276 0-5.93 2.602-5.93 5.813 0 1.938.969 3.656 2.46 4.713-.01.005-.02.007-.03.011a8.944 8.944 0 00-2.858 1.89 8.743 8.743 0 00-1.927 2.8 8.592 8.592 0 00-.705 3.237.184.184 0 00.054.136.192.192 0 00.138.056h1.435a.19.19 0 00.192-.183 6.919 6.919 0 012.1-4.788 7.197 7.197 0 015.074-2.06c1.359 0 2.662.368 3.787 1.057a.196.196 0 00.194.007zM9.204 9.843c-1.098 0-2.131-.42-2.91-1.181A4.008 4.008 0 015.4 7.354a3.968 3.968 0 01.894-4.393 4.128 4.128 0 012.91-1.18c1.1 0 2.13.419 2.91 1.18.383.374.686.819.893 1.308a3.968 3.968 0 01-.894 4.393 4.136 4.136 0 01-2.91 1.18zm8.815 5.578h-2.013v-1.969a.19.19 0 00-.192-.187h-1.342a.19.19 0 00-.192.187v1.969h-2.013a.19.19 0 00-.192.187v1.313a.19.19 0 00.192.187h2.013v1.97a.19.19 0 00.192.187h1.342a.19.19 0 00.192-.188V17.11h2.013a.19.19 0 00.192-.187v-1.313a.19.19 0 00-.192-.187z" fill="#fff"/></symbol><symbol fill="none" viewBox="0 0 14 18" id="arrow" xmlns="http://www.w3.org/2000/svg"><path d="M13.292 10.393L2.158 17.776C1.213 18.402 0 17.644 0 16.382V1.616C0 .356 1.21-.404 2.158.225l11.134 7.383c.215.14.394.343.518.587.124.245.19.523.19.805 0 .283-.066.561-.19.806a1.517 1.517 0 01-.518.587z" fill="#fff"/></symbol><symbol fill="none" viewBox="0 0 80 80" id="castle" xmlns="http://www.w3.org/2000/svg"><path d="M23.622 54.417h2.267a.937.937 0 100-1.875h-2.267a.937.937 0 100 1.875zM34.358 56.79h2.9a.937.937 0 100-1.874h-2.9a.938.938 0 000 1.875zM50.79 61.694h2.424a.938.938 0 000-1.875H50.79a.937.937 0 100 1.875zM25.848 61.231a.938.938 0 00.938.938h2.267a.938.938 0 000-1.875h-2.267a.938.938 0 00-.938.937zM64.088 63.288a.938.938 0 00.937.937h2.742a.938.938 0 000-1.875h-2.742a.937.937 0 00-.937.938zM14.184 62.35h-2.742a.938.938 0 000 1.875h2.742a.938.938 0 000-1.875zM44.324 54.708h2.267a.938.938 0 000-1.875h-2.267a.937.937 0 100 1.875zM36.672 41.692h6.656a.937.937 0 00.938-.937V36.28a4.266 4.266 0 10-8.532 0v4.475a.937.937 0 00.938.937zm.937-5.412a2.39 2.39 0 114.782 0v3.537h-4.782V36.28zM32.677 29.892a.938.938 0 00-.938.938v.72a.938.938 0 001.875 0v-.72a.937.937 0 00-.937-.938zM32.677 33.452a.938.938 0 00-.938.937v5.86a.938.938 0 001.875 0v-5.86a.937.937 0 00-.937-.938zM65.54 48.734a.937.937 0 00-.937-.937H62.02a.938.938 0 000 1.875h2.583a.937.937 0 00.938-.938zM19.63 42.697a.938.938 0 00-.938-.938h-2.584a.938.938 0 000 1.875h2.584a.938.938 0 00.938-.937z" fill="#fff"/><path d="M72.553 72.333V39.4a2.52 2.52 0 002.452-2.516v-8.54a.938.938 0 00-.938-.938h-3.539a.938.938 0 00-.937.938v1.91H67.68v-1.91a.938.938 0 00-.938-.938h-3.539a.938.938 0 00-.937.938v1.91h-1.911v-1.91a.938.938 0 00-.938-.938h-3.539a.938.938 0 00-.937.938v8.54a2.52 2.52 0 002.451 2.516v5.405H53.51a.938.938 0 00-.937.937v1.91h-.82V27.62h1.589a.938.938 0 00.687-1.574l-13.09-14.134V9.65l6.475-2.818a.937.937 0 00.025-1.709l-6.614-3.106a.938.938 0 00-1.761.447v9.448L25.97 26.046a.939.939 0 00.688 1.574h1.59v20.031h-.821v-1.909a.938.938 0 00-.938-.937h-3.882V39.4a2.52 2.52 0 002.451-2.516v-8.54a.938.938 0 00-.937-.938h-3.54a.938.938 0 00-.937.938v1.91h-1.91v-1.91a.938.938 0 00-.938-.938h-3.54a.938.938 0 00-.937.938v1.91h-1.91v-1.91a.938.938 0 00-.938-.938h-3.54a.938.938 0 00-.937.938v8.54A2.52 2.52 0 007.447 39.4v32.933a4.541 4.541 0 00-4.35 4.531v.672a.937.937 0 00.937.937h71.932a.938.938 0 00.937-.937v-.672a4.541 4.541 0 00-4.35-4.531zM40.938 4.142l3.826 1.797-3.827 1.666V4.142zm15.878 32.742v-7.603h1.664v1.91a.937.937 0 00.937.937h3.786a.938.938 0 00.938-.937v-1.91h1.664v1.91a.937.937 0 00.937.937h3.786a.938.938 0 00.938-.937v-1.91h1.664v7.603a.645.645 0 01-.644.644H57.459a.645.645 0 01-.643-.644zM40 13.66l11.194 12.086h-15.1a.937.937 0 100 1.875h13.782v20.031h-.646v-1.909a.938.938 0 00-.938-.937h-5.84a.938.938 0 00-.938.937v1.91h-3.028v-1.91a.938.938 0 00-.938-.937h-5.84a.938.938 0 00-.938.937v1.91h-.647V27.62h2.533a.937.937 0 100-1.875h-3.85L40 13.66zM25.553 46.68v1.91a.937.937 0 00.938.938h5.217a.938.938 0 00.937-.938v-1.91h3.966v1.91a.937.937 0 00.937.938h4.904a.938.938 0 00.937-.938v-1.91h3.966v1.91a.937.937 0 00.937.938h5.217a.938.938 0 00.938-.938v-1.91h3.656v4.915h-1.778a.937.937 0 100 1.875h1.778v7.71a.938.938 0 001.875 0v-4.073h2.411a.938.938 0 000-1.875h-2.41v-9.489a.938.938 0 00-.712-.909v-5.43h11.411v1.592h-2.48a.937.937 0 100 1.875h2.48v26.914h-2.331a.938.938 0 000 1.875h2.331v.67h-10.7v-7.876a.937.937 0 10-1.875 0v3.433h-1.936a.937.937 0 100 1.875h1.936v2.567H46.236v-4.492h3.986a.938.938 0 000-1.875H46.23a5.388 5.388 0 00-2.609-4.422l-3.14-1.875a.938.938 0 00-.962 0l-3.14 1.875a5.39 5.39 0 00-2.615 4.608v3.004h-2.552a.937.937 0 100 1.876h2.552v1.301H21.897v-5.731h1.778a.937.937 0 100-1.875h-1.778V46.68h3.656zm18.808 19.468v6.181h-8.722v-6.181a3.506 3.506 0 011.701-2.998L40 61.56l2.66 1.588a3.506 3.506 0 011.7 2.998zM6.87 36.884v-7.603h1.663v1.91a.937.937 0 00.938.937h3.786a.938.938 0 00.937-.937v-1.91h1.664v1.91a.937.937 0 00.938.937h3.786a.938.938 0 00.937-.937v-1.91h1.664v7.603a.645.645 0 01-.643.644H7.514a.645.645 0 01-.644-.644zm11.373 20.38h1.778v8.177a.907.907 0 000 .436v3.275H17.61a.938.938 0 000 1.874h2.41v1.302h-10.7V50.147h2.474a.937.937 0 100-1.875H9.322v-8.869h11.41v5.43a.937.937 0 00-.71.91v9.646h-1.778a.938.938 0 000 1.875zM4.984 76.598a2.664 2.664 0 012.649-2.395h64.734a2.664 2.664 0 012.649 2.395H4.984z" fill="#fff"/></symbol><symbol fill="none" viewBox="0 0 80 80" id="cinema" xmlns="http://www.w3.org/2000/svg"><g clip-path="url(#dclip0_1_114)" fill="#fff"><path d="M74.928 3.13l-1.29-.322a90.07 90.07 0 00-43.53 0l-1.288.322a6.689 6.689 0 00-5.073 6.497v9.326a90.14 90.14 0 00-19.131 7.888l-1.17.644A6.673 6.673 0 00.233 35.07L4.13 49.644a41.546 41.546 0 0025.912 28.26l4.018 1.474A12.116 12.116 0 0047.42 75.79l2.744-3.277a40.764 40.764 0 006.223-10.078c.844-.328 1.65-.752 2.399-1.262l3.503-2.452A41.56 41.56 0 0080 24.704V9.627a6.69 6.69 0 00-5.072-6.497zM48.114 70.79l-2.744 3.28a9.425 9.425 0 01-10.394 2.79l-4.018-1.473A38.87 38.87 0 016.718 48.95l-3.9-14.575a4 4 0 011.927-4.543l1.168-.645a87.474 87.474 0 0117.834-7.447v2.964a41.552 41.552 0 0014.246 31.289 25.318 25.318 0 01-7.377 1.771l-10.072.817a1.34 1.34 0 00-.443 2.557l13.352 6.028a6.696 6.696 0 008.204-2.194l2.922-4.065.382.267a12.048 12.048 0 006.913 2.17c.401 0 .79-.05 1.185-.09a38.235 38.235 0 01-4.945 7.537zm-7.759-12.89c.366.268.722.557 1.098.82l.927.648-2.903 4.04a4.019 4.019 0 01-4.923 1.313l-8.622-3.884 4.9-.401a28.047 28.047 0 009.523-2.536zm36.967-33.197a38.876 38.876 0 01-16.567 31.822l-3.503 2.452a9.407 9.407 0 01-10.756 0l-3.502-2.452a38.875 38.875 0 01-16.569-31.822V9.627A4.018 4.018 0 0129.47 5.73l1.29-.322a87.36 87.36 0 0142.23 0l1.29.322a4.018 4.018 0 013.043 3.898v15.077z"/><path d="M46.908 25.143l1.827-1.961c-4.188-4.178-10.967-4.178-15.154 0l-.067.067 1.96 1.827a8.037 8.037 0 0111.434.067zM55.01 23.182l-.066.067 1.96 1.827a8.037 8.037 0 0111.434.067l1.827-1.961c-4.188-4.178-10.967-4.178-15.154 0zM19.098 44.554a8.036 8.036 0 016.19.855l1.248-2.372c-5.125-2.96-11.678-1.204-14.637 3.92l-.047.082 1.159.67 1.205.586a7.977 7.977 0 014.882-3.74zM66.366 37.61l-9.94 1.81c-3.01.548-6.096.548-9.107 0l-9.941-1.81a1.339 1.339 0 00-1.088 2.355l11.342 9.277a6.717 6.717 0 008.482 0l11.34-9.28a1.339 1.339 0 00-1.088-2.354v.003zm-11.948 9.561a4.027 4.027 0 01-5.09 0l-7.332-5.998 4.844.88c3.327.609 6.736.609 10.062 0l4.845-.88-7.33 5.998z"/></g><defs><clipPath id="dclip0_1_114"><path fill="#fff" d="M0 0h80v80H0z"/></clipPath></defs></symbol><symbol fill="none" viewBox="0 0 80 80" id="documentary" xmlns="http://www.w3.org/2000/svg"><g clip-path="url(#eclip0_1_178)" fill="#fff"><path d="M51.727 69.165c1.01-1.093 1.443-2.434 1.443-3.915 0-1.487-.425-2.836-1.443-3.929-.992-1.065-2.245-1.557-3.689-1.557-1.447 0-2.714.478-3.714 1.54-1.023 1.088-1.444 2.433-1.444 3.92 0 1.495.42 2.857 1.448 3.954.996 1.066 2.25 1.557 3.697 1.557 1.452 0 2.71-.495 3.702-1.57zM46.404 67.4c-.482-.615-.628-1.398-.628-2.164 0-.76.159-1.513.646-2.11.416-.513.943-.77 1.603-.77.664 0 1.204.244 1.616.77.483.61.633 1.376.633 2.137 0 .761-.16 1.522-.637 2.128-.416.526-.948.778-1.612.778-.669 0-1.204-.243-1.62-.77zM41.335 59.941h-5.198c-.354 0-.664.137-.908.394-.239.252-.367.557-.367.907 0 .367.128.686.39.942.243.23.535.367.872.367h1.213v6.707c0 .384.142.72.411.99l.005.01.009.004c.283.252.62.407 1 .407.377 0 .705-.15.966-.42.265-.275.407-.607.407-.991v-6.693h1.2c.35 0 .66-.128.907-.381.248-.252.381-.562.381-.916 0-.358-.128-.677-.376-.933a1.235 1.235 0 00-.912-.394zM31.266 67.767c-.225.172-.5.234-.783.234-.439 0-.948-.154-1.355-.305-.288-.101-.775-.278-1.076-.278-.354 0-.664.132-.899.397a1.38 1.38 0 00-.35.956v.07c0 .682.536 1.11 1.098 1.38.762.364 1.639.474 2.471.474 1.08 0 2.13-.261 2.958-.995.775-.69 1.138-1.575 1.138-2.614 0-1.098-.425-1.991-1.364-2.566-.58-.372-1.372-.62-2.032-.81a8.235 8.235 0 01-.788-.248 1.63 1.63 0 01-.337-.15c-.084-.071-.181-.168-.181-.288 0-.168.084-.283.212-.38.186-.137.403-.19.629-.19.216 0 .496.07.703.128l.395.137c.243.08.567.182.823.182.359 0 .664-.142.903-.407.24-.261.36-.58.36-.934 0-.615-.421-1.035-.931-1.313-.633-.341-1.363-.456-2.072-.456-1.04 0-2.01.274-2.811.955-.753.65-1.134 1.487-1.134 2.486 0 .951.35 1.744 1.151 2.265.24.16.532.284.802.39.394.15.801.278 1.209.398.376.11.819.238 1.177.402.098.045.23.12.288.217a.68.68 0 01.075.323c0 .23-.092.398-.279.54zM66.793 70.253c.275.265.603.416.983.416.39 0 .73-.15.996-.438.261-.28.403-.615.403-1v-3.583l2.6-3.557c.185-.252.273-.54.273-.85 0-.389-.15-.725-.433-.99a1.382 1.382 0 00-.979-.407c-.482 0-.872.212-1.142.61l-1.718 2.464-1.704-2.464a1.309 1.309 0 00-1.143-.61 1.4 1.4 0 00-1.027.42 1.354 1.354 0 00-.416.977c0 .315.12.602.306.85l2.572 3.557v3.583c0 .398.142.748.43 1.022zM62.582 63.356c0-.973-.34-1.809-1.07-2.46-.744-.663-1.661-.937-2.653-.937h-2.568c-.394 0-.74.137-1.014.416a1.415 1.415 0 00-.416 1.035v7.82c0 .395.137.74.416 1.018l.005.01.004.004c.288.252.62.407 1.005.407.376 0 .713-.132.983-.403.27-.274.403-.61.403-.995v-2.26l2.502 3.078c.283.35.646.58 1.102.58.38 0 .721-.137 1.005-.398l.009-.005.004-.008c.257-.284.408-.616.408-1 0-.35-.129-.655-.363-.916l-1.886-2.075c.318-.088.642-.207.894-.38.868-.598 1.23-1.491 1.23-2.53zm-3.068.668a.892.892 0 01-.642.261H57.69v-1.703h1.156c.252 0 .478.066.66.252l.004.005.009.004a.732.732 0 01.266.57.814.814 0 01-.27.611zM17.936 70.271c.27.274.606.411.991.411.39 0 .726-.145.997-.429.26-.274.402-.602.402-.982v-8.003c0-.393-.137-.738-.412-1.021a1.358 1.358 0 00-.986-.416c-.386 0-.718.163-.984.442-.26.279-.416.61-.416.995v2.557h-3.67v-2.557c0-.39-.137-.73-.403-1.008a1.32 1.32 0 00-.983-.43c-.39 0-.726.16-.997.443a1.412 1.412 0 00-.416.995v8.003c0 .389.137.73.416 1.004.275.27.611.407.997.407.385 0 .721-.137.987-.411.27-.274.398-.615.398-1v-2.835h3.671v2.835c0 .389.137.725.408 1zM22.726 60.273c-.261.279-.416.61-.416.995v7.99c0 .384.137.726.407 1 .27.274.611.41.992.41.385 0 .721-.136.992-.41.27-.27.407-.602.407-.987v-8.003c0-.39-.133-.73-.403-1.009a1.322 1.322 0 00-.983-.429c-.39 0-.726.16-.996.443z"/><path d="M78.425 24.957H19.78l57.574-11.13a1.577 1.577 0 001.248-1.847l-1.74-8.984a1.576 1.576 0 00-1.846-1.248l-16.499 3.19a1.52 1.52 0 00-.103.019L8.54 14.597l-.016.003-7.247 1.401a1.576 1.576 0 00-1.248 1.847l1.711 8.836v50.023c0 .87.706 1.576 1.576 1.576h30.085a1.576 1.576 0 100-3.151H4.89v-37.87H76.85v37.87H47.587a1.576 1.576 0 100 3.151h30.838c.87 0 1.575-.705 1.575-1.576V26.533c0-.87-.706-1.576-1.575-1.576zM53.17 34.11l4.505-6.001h8.766l-4.505 6.001H53.17zm-12.708 0l4.502-6.001h8.77L49.23 34.11h-8.767zm-12.711 0l4.506-6.001h8.767l-4.502 6.001h-8.771zm-12.707 0l4.506-6.001h8.766l-4.505 6.001h-8.767zM4.891 26.533a1.613 1.613 0 013.225 0 1.613 1.613 0 01-3.225 0zM20.947 15.41l6.302 4.895-8.367 1.617-6.299-4.895 8.364-1.617zm12.476-2.412l6.301 4.895-8.362 1.617-6.302-4.895 8.363-1.617zm12.476-2.411l6.3 4.894-8.361 1.617-6.301-4.894 8.362-1.617zm12.48-2.412l6.298 4.894-8.364 1.617-6.3-4.894 8.367-1.617zm16.83 2.858l-6.42 1.241-6.297-4.894L74.069 5.14l1.14 5.891zM8.47 17.82l6.3 4.897-4.525.874a4.757 4.757 0 00-6.122-1.179l-.7-3.616 5.047-.976zM4.891 31.014a4.74 4.74 0 001.613.281 4.771 4.771 0 004.494-3.185h4.612l-4.505 6.001H4.89v-3.097zm60.987 3.097l4.505-6.001h6.466v6.001H65.878z"/><path d="M70.49 54.04c.87 0 1.576-.704 1.576-1.575V46.02c0-.87-.706-1.576-1.576-1.576H10.364c-.87 0-1.576.706-1.576 1.576v6.445c0 .87.706 1.575 1.576 1.575H70.49zm-1.575-3.15h-17.53v-3.295h17.53v3.294zm-20.681 0H30.018v-3.295h18.216v3.294zM11.94 47.594h14.926v3.294H11.94v-3.294zM40.551 75.132h-.026a1.575 1.575 0 100 3.151h.026a1.576 1.576 0 100-3.151z"/></g><defs><clipPath id="eclip0_1_178"><path fill="#fff" d="M0 0h80v80H0z"/></clipPath></defs></symbol><symbol fill="none" viewBox="0 0 80 80" id="ghost" xmlns="http://www.w3.org/2000/svg"><g clip-path="url(#fclip0_1_74)" fill="#fff"><path d="M77.919 25.107a4.409 4.409 0 00-6.115-2.194 48.306 48.306 0 00-5.915 3.667v-.693a25.886 25.886 0 10-51.771 0v.693a48.31 48.31 0 00-5.916-3.667 4.41 4.41 0 00-4.783 7.37 53.254 53.254 0 019.764 10.452c-.534 4.285-1.3 8.537-2.291 12.739L7.417 67.615a1.094 1.094 0 00.875 1.338l4.088.713a5.141 5.141 0 013.522 2.413l.497.826a7.35 7.35 0 007.078 3.505l.964-.106a5.156 5.156 0 014.042 1.328l.643.591a7.33 7.33 0 007.933 1.308l.858-.38a5.167 5.167 0 014.167 0l.858.38a7.324 7.324 0 007.933-1.308l.643-.59a5.157 5.157 0 014.043-1.329l.963.106a7.342 7.342 0 007.078-3.506l.5-.824a5.14 5.14 0 013.522-2.413l4.089-.714a1.094 1.094 0 00.875-1.338l-3.473-14.132a120.072 120.072 0 01-2.294-12.75 53.253 53.253 0 019.764-10.452 4.395 4.395 0 001.334-5.174zm-2.678 3.448a55.229 55.229 0 00-10.477 11.32c-.139.215-.198.472-.168.727a122.29 122.29 0 002.388 13.395l3.195 13-2.937.513a7.324 7.324 0 00-5.02 3.437l-.5.825a5.16 5.16 0 01-4.966 2.46l-.965-.106a7.332 7.332 0 00-5.76 1.892l-.643.592a5.14 5.14 0 01-5.567.918l-.857-.38a7.334 7.334 0 00-5.938 0l-.857.38a5.142 5.142 0 01-5.566-.918l-.644-.592a7.333 7.333 0 00-5.76-1.892l-.965.105a5.164 5.164 0 01-4.966-2.458l-.497-.826a7.324 7.324 0 00-5.02-3.437l-2.937-.513 3.197-13.012a122.32 122.32 0 002.386-13.387 1.095 1.095 0 00-.168-.726 55.23 55.23 0 00-10.47-11.317 2.223 2.223 0 012.418-3.706 43.498 43.498 0 017.291 4.776 1.094 1.094 0 001.791-.812c.024-.975.043-1.949.043-2.924a23.698 23.698 0 1147.396 0c0 .975.019 1.95.043 2.924a1.094 1.094 0 001.79.815 43.496 43.496 0 017.291-4.776 2.219 2.219 0 013.08 1.106 2.205 2.205 0 01-.661 2.597z"/><path d="M31.914 13.828c-2.52 0-4.57 2.506-4.57 5.586 0 3.08 2.05 5.586 4.57 5.586 2.52 0 4.57-2.506 4.57-5.586 0-3.079-2.047-5.586-4.57-5.586zm0 8.985c-1.292 0-2.383-1.557-2.383-3.399 0-1.841 1.094-3.398 2.383-3.398 1.288 0 2.383 1.556 2.383 3.398 0 1.843-1.091 3.398-2.383 3.398zM48.086 13.828c-2.52 0-4.57 2.506-4.57 5.586 0 3.08 2.05 5.586 4.57 5.586 2.52 0 4.57-2.506 4.57-5.586 0-3.079-2.05-5.586-4.57-5.586zm0 8.985c-1.292 0-2.383-1.557-2.383-3.399 0-1.841 1.091-3.398 2.383-3.398 1.29 0 2.383 1.556 2.383 3.398 0 1.843-1.094 3.398-2.383 3.398zM40 24.297c-2.65 0-4.727 3.174-4.727 7.227 0 4.052 2.077 7.226 4.727 7.226 2.65 0 4.726-3.174 4.726-7.226S42.65 24.297 40 24.297zm0 12.265c-1.199 0-2.54-2.154-2.54-5.038 0-2.884 1.341-5.04 2.54-5.04s2.539 2.155 2.539 5.04c0 2.884-1.34 5.038-2.539 5.038z"/></g><defs><clipPath id="fclip0_1_74"><path fill="#fff" d="M0 0h80v80H0z"/></clipPath></defs></symbol><symbol fill="none" viewBox="0 0 80 80" id="hearts" xmlns="http://www.w3.org/2000/svg"><g clip-path="url(#gclip0_1_87)" fill="#fff"><path d="M79.246 32.261c0-5.762-2.19-11.165-6.165-15.214-3.998-4.07-9.36-6.313-15.098-6.313A21.474 21.474 0 0040 20.424a21.474 21.474 0 00-17.983-9.69c-5.738 0-11.1 2.243-15.098 6.313C2.944 21.098.754 26.5.754 32.263c0 5.4 1.563 8.557 2.82 11.094l.136.276c5.2 10.535 34.274 34.7 35.51 35.723l.778.645.78-.643c.03-.025 2.772-2.287 6.677-5.675a267.097 267.097 0 006.564 5.672l.778.646.78-.644c.764-.63 18.746-15.5 21.823-21.994l.085-.18c.743-1.562 1.76-3.702 1.76-6.957 0-2.825-.826-5.498-2.392-7.782 1.052-2.256 2.393-5.51 2.393-10.181zm-3.97 23.87l-.087.184C72.684 61.6 58.325 73.858 54.8 76.817a279.255 279.255 0 01-6.516-5.676c-4.278-3.849-7.71-7.2-10.133-9.882a48.924 48.924 0 01-1.784-2.077 30.454 30.454 0 01-.578-.738c-.628-.83-1.094-1.55-1.389-2.147l-.05-.103c-.715-1.446-1.525-3.085-1.525-5.969 0-6.268 4.827-11.177 10.99-11.177 4.166 0 7.96 2.294 9.9 5.986l1.083 2.06 1.083-2.06a11.157 11.157 0 019.9-5.986c3.431 0 6.597 1.557 8.687 4.272 1.524 1.98 2.33 4.368 2.33 6.905 0 2.703-.81 4.405-1.523 5.907zm-.17-15.767l-.017-.015c-.135-.131-.273-.258-.413-.383l-.073-.065a13.504 13.504 0 00-.966-.773l-.041-.028c-.148-.107-.299-.21-.451-.31l-.07-.047a13.027 13.027 0 00-1.061-.62l-.06-.031c-.16-.084-.322-.163-.486-.24l-.063-.03a12.898 12.898 0 00-1.14-.461l-.076-.026c-.172-.06-.345-.116-.52-.168l-.051-.016a13.17 13.17 0 00-.548-.148l-.107-.027a13.015 13.015 0 00-.548-.12l-.093-.017a13.48 13.48 0 00-.555-.094l-.031-.005c-.191-.028-.383-.05-.576-.07l-.11-.01a13.614 13.614 0 00-.566-.041l-.105-.005A13.589 13.589 0 0054.8 42.16a13.59 13.59 0 00-10.983-5.56c-.681 0-1.354.05-2.014.148a13.215 13.215 0 00-7.535 3.852c-2.507 2.56-3.888 5.978-3.888 9.625 0 3.456.986 5.45 1.778 7.053l.05.102c.047.095.097.191.15.29l.053.096.115.206.072.121.115.193c.027.045.057.09.086.136l.12.19c.03.048.064.098.097.147.041.063.083.126.127.19.034.052.071.104.107.156l.135.194.118.164.144.197.127.172.152.202.138.179a44.71 44.71 0 00.477.603 40.865 40.865 0 00.69.83l.175.205a52.564 52.564 0 00.382.44l.206.233a89.696 89.696 0 00.611.68 56.89 56.89 0 00.437.473l.233.25.222.236.24.253.233.244.25.26.241.249.264.27.245.25.283.285.245.246.3.3a120.416 120.416 0 00.799.787l.283.276.299.29c.099.096.2.194.302.29l.297.286c.103.1.209.2.314.3l.305.29.318.3c.106.1.211.2.319.3.108.103.22.206.33.31l.321.3.348.322a130.61 130.61 0 001.016.935l.36.329.215.196a424.385 424.385 0 01-5.62 4.787c-4.739-3.981-29.584-25.122-34.099-34.27l-.138-.278c-1.202-2.428-2.565-5.18-2.565-10.009 0-10.699 8.265-19.08 18.816-19.08a19.046 19.046 0 0116.9 10.218L40 25.46l1.083-2.06a19.046 19.046 0 0116.9-10.219c10.551 0 18.816 8.381 18.816 19.08 0 3.517-.835 6.1-1.694 8.103zM23.113 0h-2.447v7.618h2.447V0zM32.46 2.222L29.26 9.136l2.221 1.027L34.68 3.25l-2.22-1.028zM11.319 2.221L9.098 3.248l3.198 6.914 2.22-1.027-3.197-6.914z"/><path d="M8.424 33.597c0-.114 0-.23.003-.344l-2.446-.05c-.003.13-.004.262-.004.394 0 1.641.166 3.137.51 4.572l2.38-.57c-.299-1.246-.443-2.555-.443-4.002zM11.74 20.148c-2.932 2.755-4.896 6.48-5.531 10.488l2.417.383c.55-3.475 2.251-6.702 4.79-9.088l-1.677-1.783zM40.696 41.693c-3.364 1.56-5.565 4.873-5.742 8.644l2.444.115c.134-2.858 1.793-5.363 4.327-6.539l-1.03-2.22z"/></g><defs><clipPath id="gclip0_1_87"><path fill="#fff" d="M0 0h80v80H0z"/></clipPath></defs></symbol><symbol fill="none" viewBox="0 0 70 70" id="logo" xmlns="http://www.w3.org/2000/svg"><rect x="2" y="2" width="66" height="66" rx="12" stroke="url(#hpaint0_linear_1_60)" stroke-width="4"/><path d="M47.517 51.04c-1.733 0-2.973-.493-3.72-1.48-.746-1.013-1.12-2.493-1.12-4.44 0-1.947.627-6.427 1.88-13.44h-.64c-1.626 2.133-2.973 4.68-4.04 7.64-1.066 2.96-1.72 5.627-1.96 8-1.306 1.227-2.813 1.84-4.52 1.84-.693 0-1.306-.24-1.84-.72-.506-.507-1.013-1.373-1.52-2.6-.986-2.48-1.693-7.2-2.12-14.16h-.64c-1.306 5.733-1.96 9.773-1.96 12.12 0 2.347.4 4.16 1.2 5.44-1.6 1.2-3.266 1.8-5 1.8-1.733 0-2.973-.493-3.72-1.48-.746-1.013-1.12-2.507-1.12-4.48 0-2 .84-7.64 2.52-16.92l-2.12-4.28c3.014-1.947 5.76-2.92 8.24-2.92 1.094 0 2.014.12 2.76.36.774.213 1.507.64 2.2 1.28.72.64 1.307 1.533 1.76 2.68 1.04 2.587 1.787 6.36 2.24 11.32h.48c1.387-4.08 3.307-7.587 5.76-10.52a14.688 14.688 0 014.76-3.72c1.867-.907 3.88-1.36 6.04-1.36 2.054 0 3.08 1.24 3.08 3.72 0 .827-.52 3.907-1.56 9.24-1.013 5.307-1.52 8.467-1.52 9.48 0 2.587.4 4.52 1.2 5.8-1.6 1.2-3.266 1.8-5 1.8z" fill="#fff"/><defs><linearGradient id="hpaint0_linear_1_60" x1="0" y1="5" x2="70" y2="70" gradientUnits="userSpaceOnUse"><stop stop-color="#326CFF"/><stop offset="1" stop-color="#26FFF2"/></linearGradient></defs></symbol><symbol fill="none" viewBox="0 0 22 24" id="notice" xmlns="http://www.w3.org/2000/svg"><path d="M9.967 23.518c.42-.01.823-.178 1.137-.473.315-.294.521-.698.583-1.138H8.18c.063.452.279.865.607 1.162a1.72 1.72 0 001.18.449z" fill="#fff"/><path d="M9.967 23.518c.42-.01.823-.178 1.137-.473.315-.294.521-.698.583-1.138H8.18c.063.452.279.865.607 1.162a1.72 1.72 0 001.18.449z" stroke="#fff"/><path d="M19.772 18.415a9.821 9.821 0 01-1.685-2.01 8.808 8.808 0 01-.906-3.298V9.72a7.637 7.637 0 00-.107-1.228 4.928 4.928 0 01-1.504-.576c.179.586.27 1.197.269 1.81v3.388a9.928 9.928 0 001.107 4.012c.464.75 1.013 1.44 1.638 2.057H1.396a11.048 11.048 0 001.638-2.057 9.927 9.927 0 001.107-4.012V9.72a6.15 6.15 0 01.44-2.315A6.047 6.047 0 015.857 5.44 5.9 5.9 0 017.77 4.123a5.797 5.797 0 012.263-.466c1.136.001 2.248.345 3.194.988a5.24 5.24 0 01-.174-1.2v-.432a6.99 6.99 0 00-2.229-.686v-.864a.926.926 0 00-.262-.647.886.886 0 00-1.267 0 .926.926 0 00-.262.647v.898a7.213 7.213 0 00-4.47 2.486A7.509 7.509 0 002.793 9.72v3.387a8.806 8.806 0 01-.906 3.299 9.826 9.826 0 01-1.658 2.009.685.685 0 00-.228.514v.933c0 .182.07.356.197.485.125.128.296.2.474.2H19.33a.664.664 0 00.474-.2.693.693 0 00.197-.485v-.933a.697.697 0 00-.228-.514z" fill="#fff"/><path d="M17.967 7.067c1.84 0 3.333-1.582 3.333-3.534C21.3 1.582 19.808 0 17.967 0c-1.841 0-3.334 1.582-3.334 3.533 0 1.952 1.493 3.534 3.334 3.534z" fill="url(#ipaint0_linear_1_48)"/><path d="M17.967 7.067c1.84 0 3.333-1.582 3.333-3.534C21.3 1.582 19.808 0 17.967 0c-1.841 0-3.334 1.582-3.334 3.533 0 1.952 1.493 3.534 3.334 3.534z" stroke="#fff"/><defs><linearGradient id="ipaint0_linear_1_48" x1="17.967" y1="0" x2="17.967" y2="7.067" gradientUnits="userSpaceOnUse"><stop stop-color="#326CFF"/><stop offset="1" stop-color="#26FFF2"/></linearGradient></defs></symbol><symbol fill="none" viewBox="0 0 59 76" id="outline" xmlns="http://www.w3.org/2000/svg"><path d="M.017 48.013l1.25 7.5c.053.317.226.602.483.795l9.688 7.265 1.126 3.38a1.25 1.25 0 001.392.838l.6-.1-.741 2.221a1.251 1.251 0 00-.065.396v3.75a1.25 1.25 0 001.25 1.25h30a1.25 1.25 0 001.212-1.556l-.753-2.992 7.671 4.383a1.25 1.25 0 001.66-.392s2.602-3.934 2.614-3.964c.005-.012 1.31-5.176 1.31-5.176a1.25 1.25 0 00-.654-1.421l-2.5-1.25a1.25 1.25 0 00-1.443.234s-2.728 2.787-2.788 2.952l-3.04-1.699 5.146-5.789a1.25 1.25 0 00.31-.706l1.25-12.5a1.253 1.253 0 00-.019-.37L53.02 35.28a10.397 10.397 0 00-7.674-8.048l-2.494-.624-6.965-2.321L35 22.512V20.62l.75-.562a1.25 1.25 0 00.5-1v-2.5a1.25 1.25 0 001.25-1.25v-4.804a25.56 25.56 0 001.25-7.9V1.559A1.25 1.25 0 0037.5.308h-6.465a9.719 9.719 0 00-6.77 2.72l-2.029 1.014a6.306 6.306 0 000 11.281l.274.137a1.25 1.25 0 001.24 1.098v2.5a1.25 1.25 0 00.5 1l.75.562v1.892l-.905 1.811-5.586 2.235h-.818A12.05 12.05 0 005.805 36.627L5.07 41.03.274 47.026a1.25 1.25 0 00-.257.987zM16.25 70.511l1.095-3.285 4.11-.685a1.25 1.25 0 00.98-.838l.832-2.492 9.18 3.672-.987 1.481a1.25 1.25 0 00.259 1.67l3.468 2.774H16.25V70.51zm1.634-27.054l.535 4.278-2.692-1.504 2.157-2.774zm10.366-9.15a2.931 2.931 0 003.5 0A11.313 11.313 0 0036.12 27l.124.04a31.778 31.778 0 01-2.426 11.743 31.998 31.998 0 01-2.188 4.327l-.38-.076v-3.975a1.25 1.25 0 00-2.5 0v4.024l-3.605.9-4.586-2.292a1.245 1.245 0 00-.392-.12L20 40.23V28.654l3.895-1.558a11.313 11.313 0 004.355 7.212zm11.973 36.51l-1.566 1.566-4.481-3.585 1.626-2.44 1.2-.4.032-.013 4.377 2.502-.029.052-1.16 2.318zm-8.44-15.613l3.01-3.31a34.438 34.438 0 006.242-9.757l-2.237 7.828a1.252 1.252 0 00-.048.343v8.788l-6.966-3.892zm9.467-4.721l1.57-5.492.93 1.862v8.054l-2.5 3.5v-7.924zm0-21.759a31.881 31.881 0 01-8.308 21.489l-3.398 3.739-2.515-1.406 1.632-1.632a34.43 34.43 0 0010.063-23.048l2.526.843v.015zM21.127 49.248l-.597-4.778 3.911 1.956c.267.133.573.167.862.094l4.727-1.181.102.02a32 32 0 01-3.239 3.787l-2.132 2.133-3.634-2.03zm-6.953-1.021l12.357 6.905-1.321 1.982a1.25 1.25 0 102.08 1.387l1.43-2.145 1.758.981-1.518 2.277a1.25 1.25 0 102.08 1.387l1.627-2.44 4.33 2.42-1.84 2.956-.552.185a1.25 1.25 0 00-.645.492l-.095.143-10.662-4.265-3.568-3.568a1.25 1.25 0 00-.885-.366H15.6l-4.008-5.011 2.582-3.32zm27.594 24.58l.366-.365c.095-.095.174-.205.234-.325l.569-1.136.46 1.827h-1.63zm11.59-.413l-15.136-8.649.96-1.543L54.46 70.74l-1.103 1.654zm1.889-6.815l.797.398-.61 2.443-1.943-1.086 1.756-1.755zm-6.84-33.846a7.872 7.872 0 012.16 4.036l1.92 9.601-1.19 11.91-5.243 5.898-3.673-2.053 3.636-5.09a1.25 1.25 0 00.233-.727v-8.75a1.25 1.25 0 00-.132-.56l-2.368-4.735V29.409l.989.247a7.9 7.9 0 013.669 2.077zM25 14.058v-2.5h10v2.5h-2.205L30.56 12.94a1.25 1.25 0 00-1.118 0l-2.236 1.118H25zm-3.75-4.375a3.786 3.786 0 012.104-3.405l2.205-1.102c.12-.06.23-.14.325-.235a7.238 7.238 0 015.151-2.133h5.214a23.06 23.06 0 01-.918 6.25H23.75a1.25 1.25 0 00-1.25 1.25v2.197a3.785 3.785 0 01-1.25-2.822zm6.25 6.875c.194 0 .386-.046.56-.132l1.94-.97 1.941.97c.174.087.365.132.559.132h1.25v1.875l-2.5 1.875h-2.5l-2.5-1.875v-1.875h1.25zm.084 6c.216.162.479.25.75.25h3.333c.27 0 .533-.088.75-.25l.083-.063v.313c0 .194.045.385.132.559l1.11 2.218a8.791 8.791 0 01-3.492 6.723.419.419 0 01-.5 0 8.792 8.792 0 01-3.492-6.722l1.11-2.218c.087-.174.132-.366.132-.56v-.313l.084.063zM7.226 42.338c.134-.166.222-.364.257-.574l.788-4.726A9.55 9.55 0 0117.5 29.06v10.819l-4.337 5.576a1.24 1.24 0 00-.625.805l-3.524 4.53a1.25 1.25 0 00.01 1.549l5 6.25a1.25 1.25 0 00.976.469h3.232l2.838 2.837-.768 2.303-5.704.951-.912-2.737a1.25 1.25 0 00-.436-.604l-9.6-7.2-1.075-6.455 4.651-5.814z" fill="#fff"/></symbol><symbol fill="none" viewBox="0 0 86 85" id="rocket" xmlns="http://www.w3.org/2000/svg"><path d="M40.175 59.837L25.17 44.026a1.081 1.081 0 01.04-1.529l24.548-23.296.084-.08c4.889-3.726 11.3-4.687 19.601-2.94a1.081 1.081 0 01.845.89c1.319 8.387.02 14.737-3.963 19.422a1 1 0 01-.078.084L41.699 59.873a1.081 1.081 0 01-1.524-.036zM27.482 43.32l13.517 14.243L64.72 35.052c3.457-4.091 4.591-9.477 3.548-16.897-7.354-1.425-12.792-.574-17.063 2.658L27.482 43.322z" fill="#fff"/><path d="M19.715 41.523a1.084 1.084 0 01-.295-.815l.145-2.153a11.428 11.428 0 017.33-9.986l.132-.05a18.195 18.195 0 0113.544.383 1.08 1.08 0 01.26 1.751l-11.033 10.47a1.081 1.081 0 01-1.015.262 14.453 14.453 0 00-7.894.404 1.082 1.082 0 01-1.029-.141 1.12 1.12 0 01-.145-.125zm7.557-11.94l.376 1.012a9.261 9.261 0 00-5.926 8.105l-.04.606a16.414 16.414 0 017.052-.153l9.353-8.877a16.533 16.533 0 00-10.322.275l-.493-.968zM42.395 65.421a1.083 1.083 0 01-.207-1.184 14.454 14.454 0 00.817-7.861 1.082 1.082 0 01.314-1l11.035-10.473a1.082 1.082 0 011.735.35 18.195 18.195 0 01-.326 13.546l-.056.13a11.428 11.428 0 01-10.356 6.798l-2.157.032a1.08 1.08 0 01-.799-.338zm2.839-8.881c.338 2.355.16 4.755-.522 7.034l.607-.01a9.262 9.262 0 008.402-5.491l1.04.31-.995-.42a16.533 16.533 0 00.813-10.293l-9.345 8.87zM54.216 31.493a5.694 5.694 0 118.049.21 5.7 5.7 0 01-8.05-.21zm6.691-6.35a3.532 3.532 0 10-5.125 4.86 3.532 3.532 0 005.125-4.86zM36.163 62.102L22.698 47.914a1.08 1.08 0 01.04-1.529l3.242-3.076a1.081 1.081 0 011.528.04l13.465 14.188a1.08 1.08 0 01-.04 1.528l-3.242 3.077a1.081 1.081 0 01-1.528-.04zM25.01 47.21l11.976 12.62 1.673-1.589-11.976-12.62-1.674 1.588z" fill="#fff"/><path d="M15.17 68.648a3.602 3.602 0 01-.483-3.996 26.849 26.849 0 001.787-6.733c.638-3.948 1.141-7.067 8.078-10.147a1.082 1.082 0 011.223.243L36.21 59.012a1.08 1.08 0 01.18 1.235 17.984 17.984 0 01-3.416 4.933c-2.213 2.1-4.479 2.367-7.102 2.676-2.304.2-4.573.695-6.751 1.47a3.581 3.581 0 01-3.948-.673l-.005-.005zm9.569-18.584c-5.204 2.462-5.54 4.544-6.13 8.202a29.065 29.065 0 01-1.93 7.232c-.294.692-.271 1.315.06 1.663.328.346.94.396 1.638.14a29.398 29.398 0 017.245-1.59c2.513-.298 4.175-.491 5.867-2.096a14.63 14.63 0 002.625-3.674l-9.375-9.877z" fill="#fff"/><path d="M22.56 61.582a2.378 2.378 0 01-.348-2.612c.436-1.062.731-2.175.88-3.313.325-1.99.607-3.706 3.853-5.31a1.081 1.081 0 011.26.228l5.581 5.881a1.082 1.082 0 01.161 1.27 8.73 8.73 0 01-1.548 2.1 6.054 6.054 0 01-3.931 1.51c-1.134.1-2.25.344-3.321.725a2.37 2.37 0 01-2.583-.476l-.003-.003zm4.641-8.923c-1.588.937-1.721 1.759-1.98 3.344a15.346 15.346 0 01-1.021 3.808.562.562 0 00-.06.295c0-.024.098-.018.256-.077a15.426 15.426 0 013.822-.841 4.072 4.072 0 002.694-.93c.28-.277.53-.583.74-.914l-4.451-4.685zM37.04 47.793a1.081 1.081 0 01.04-1.529l4.597-4.362a1.08 1.08 0 111.488 1.568l-4.596 4.363a1.08 1.08 0 01-1.529-.04zM33.562 44.089a1.082 1.082 0 01.04-1.529l2.021-1.918a1.08 1.08 0 011.489 1.568l-2.022 1.919a1.081 1.081 0 01-1.528-.04zM40.548 51.45a1.08 1.08 0 01.04-1.528l2.022-1.918a1.081 1.081 0 111.488 1.568l-2.021 1.918a1.08 1.08 0 01-1.529-.04z" fill="#fff"/></symbol><symbol fill="none" viewBox="0 0 20 20" id="search" xmlns="http://www.w3.org/2000/svg"><path d="M19 19l-6-6 6 6zM15 8a7.002 7.002 0 01-9.679 6.467A7 7 0 1115 8z" stroke="#fff" stroke-width="2" stroke-linecap="round" stroke-linejoin="round"/></symbol><symbol fill="none" viewBox="0 0 80 80" id="smile" xmlns="http://www.w3.org/2000/svg"><path d="M56.812 49.14a1.739 1.739 0 00-2.456.135C50.73 53.329 45.497 55.652 40 55.652c-5.496 0-10.729-2.323-14.357-6.377a1.739 1.739 0 10-2.59 2.32C27.338 56.385 33.515 59.13 40 59.13c6.485 0 12.663-2.747 16.948-7.535a1.74 1.74 0 00-.136-2.456z" fill="#fff"/><path d="M40 0C17.944 0 0 17.944 0 40s17.944 40 40 40 40-17.944 40-40S62.056 0 40 0zm0 76.522C19.86 76.522 3.478 60.139 3.478 40 3.478 19.86 19.861 3.478 40 3.478c20.14 0 36.522 16.383 36.522 36.522 0 20.14-16.383 36.522-36.522 36.522z" fill="#fff"/><path d="M53.913 27.826c-4.795 0-8.696 3.901-8.696 8.696a1.74 1.74 0 003.479 0 5.224 5.224 0 015.217-5.218 5.224 5.224 0 015.217 5.218 1.74 1.74 0 003.479 0c0-4.795-3.901-8.696-8.696-8.696zM31.304 36.522a1.74 1.74 0 003.479 0c0-4.795-3.901-8.696-8.696-8.696s-8.696 3.901-8.696 8.696a1.74 1.74 0 003.479 0 5.224 5.224 0 015.217-5.218 5.224 5.224 0 015.217 5.218z" fill="#fff"/></symbol><symbol viewBox="0 0 16.32 15.24" id="star"><path d="M3.612 15.443c-.386.198-.824-.149-.746-.592l.83-4.73L.173 6.765c-.329-.314-.158-.888.283-.95l4.898-.696L7.538.792c.197-.39.73-.39.927 0l2.184 4.327 4.898.696c.441.062.612.636.283.95l-3.523 3.356.83 4.73c.078.443-.36.79-.746.592L8 13.187l-4.388 2.256z" fill="#FFB800"/></symbol></svg>